<?xml version="1.0" encoding="UTF-8"?>
<svg id="Layer_2" xmlns="http://www.w3.org/2000/svg" version="1.1" viewBox="0 0 907.1 281.2">
  <!-- Generator: Adobe Illustrator 29.1.0, SVG Export Plug-In . SVG Version: 2.1.0 Build 142)  -->
  <defs>
    <style>
      .st0 {
        fill: #2563eb;
      }

      .st1 {
        fill: #f7a233;
      }
    </style>
  </defs>
  <g>
    <path class="st0" d="M120.5,219.6v61.6c-30.7,0-55.5-24.9-55.5-55.5v-60.2h1.4c29.8,0,54.1,24.2,54.1,54.1Z"/>
    <path class="st0" d="M87.4,2.1l27.2,15.7c10.6,6.1,10.6,21.3,0,27.4l-27.2,15.7c-10.6,6.1-23.8-1.5-23.8-13.7V15.9c0-12.2,13.2-19.8,23.8-13.7h0Z"/>
    <path class="st1" d="M120.5,139.9v37.5c-7.5-22.6-28.9-39-54.1-39h-12.5c-14.4,0-27.9-5.6-38.2-15.8C5.9,112.8.4,99.8,0,86h66.5c14.4,0,27.9,5.6,38.1,15.8,10.2,10.2,15.8,23.7,15.8,38.1h0Z"/>
  </g>
  <g>
    <path class="st1" d="M903.2,263c-2.2,0-4-1.8-4-4v-35.7c0-2.2,1.8-4,4-4s4,1.8,4,4v35.7c0,2.2-1.8,4-4,4Z"/>
    <path class="st1" d="M684.2,242.9l9.1-2.5c0-.1-.2-.3-.4-.4-3.5-3.5-9.2-3.5-12.7,0-1.7,1.7-2.6,4-2.6,6.4s.9,4.7,2.6,6.4c1.7,1.7,4,2.6,6.4,2.6h0c2.4,0,4.7-.9,6.4-2.6.2-.2.3-.3.5-.5,1.4-1.7,3.9-1.8,5.6-.4,1.7,1.4,1.8,3.9.4,5.6-.3.3-.6.7-.9,1-3.2,3.2-7.4,4.9-11.9,4.9h0c-4.5,0-8.8-1.8-11.9-5-3.2-3.2-4.9-7.5-4.9-12s1.8-8.8,5-11.9c6.6-6.6,17.3-6.6,23.9,0,1.5,1.5,2.7,3.2,3.5,5.1,0,.2,0,.4.2.6l.5,1.9c.6,2.1-.7,4.3-2.8,4.9l-13.6,3.7c-2.1.6-4.3-.7-4.9-2.8-.6-2.1.7-4.3,2.8-4.9h-.3,0Z"/>
    <g>
      <path class="st1" d="M820,243.3v15.9c0,2.2-1.8,4-4,4s-4-1.8-4-4v-15.9c0-3.6-2.9-6.6-6.5-6.6s-6.6,2.9-6.6,6.6v15.7c0,2.2-1.8,4-4,4s-4-1.8-4-4v-35.7c0-2.2,1.8-4,4-4s4,1.8,4,4v7.1c2-1,4.2-1.6,6.6-1.6,8,0,14.4,6.5,14.4,14.5h0Z"/>
      <path class="st1" d="M751.3,249.9c0,7.2-5.9,13.1-13.1,13.1s-11.9-4.6-12.9-11c-.3-2.2,1.1-4.2,3.3-4.5s4.2,1.1,4.5,3.3c.4,2.5,2.6,4.3,5.1,4.3s5.2-2.3,5.2-5.2-2.3-5.2-5.2-5.2c-7.2,0-13.1-5.9-13.1-13.1s5.9-13.1,13.1-13.1,11.7,4.5,12.9,10.7c.4,2.1-1,4.2-3.2,4.6-2.1.4-4.2-1-4.6-3.2-.5-2.5-2.6-4.2-5.1-4.2s-5.2,2.3-5.2,5.2,2.3,5.2,5.2,5.2c7.2,0,13.1,5.9,13.1,13.1h0Z"/>
      <path class="st1" d="M784.4,252.8c1.6,1.5,1.6,4,0,5.6-3.2,3.2-7.4,5-11.9,5h0c-4.5,0-8.7-1.7-11.9-4.9-3.2-3.2-5-7.4-5-11.9s1.7-8.8,4.9-12c6.6-6.6,17.3-6.6,23.9,0,1.6,1.5,1.6,4.1,0,5.6-1.5,1.6-4,1.6-5.6,0-3.5-3.5-9.2-3.5-12.7,0-1.7,1.7-2.6,4-2.6,6.4s.9,4.7,2.6,6.4c1.7,1.7,4,2.6,6.4,2.6h0c2.4,0,4.7-.9,6.4-2.6,1.5-1.6,4-1.6,5.6,0v-.2h-.1Z"/>
    </g>
    <g>
      <path class="st1" d="M603.2,243.3v15.9c0,2.2-1.8,4-4,4s-4-1.8-4-4v-15.9c0-3.6-2.9-6.6-6.6-6.6s-6.5,2.9-6.5,6.6v15.7c0,2.2-1.8,4-4,4s-4-1.8-4-4v-26.3c0-2.2,1.8-4,4-4s2.7.8,3.4,1.9c2.1-1.2,4.5-1.9,7.1-1.9,8,0,14.5,6.5,14.5,14.5h0Z"/>
      <path class="st1" d="M616.8,222.6v36.5c0,2.2-1.8,4-4,4s-4-1.8-4-4v-36.5c0-2.2,1.8-4,4-4s4,1.8,4,4Z"/>
      <path class="st1" d="M630.9,221.4c0,2.4-1.9,4.3-4.3,4.3s-4.3-1.9-4.3-4.3,1.9-4.3,4.3-4.3,4.3,1.9,4.3,4.3Z"/>
      <path class="st1" d="M665.2,243.3v15.9c0,2.2-1.8,4-4,4s-4-1.8-4-4v-15.9c0-3.6-2.9-6.6-6.5-6.6s-6.5,2.9-6.5,6.6v15.7c0,2.2-1.8,4-4,4s-4-1.8-4-4v-26.3c0-2.2,1.8-4,4-4s2.7.8,3.4,1.9c2.1-1.2,4.5-1.9,7.1-1.9,8,0,14.4,6.5,14.4,14.5h0Z"/>
      <path class="st1" d="M630.5,232.8v26.3c0,2.2-1.8,4-4,4s-4-1.8-4-4v-26.3c0-2.2,1.8-4,4-4s4,1.8,4,4Z"/>
    </g>
    <path class="st1" d="M840.9,263.2c-9.3,0-16.9-7.6-16.9-16.9s7.6-16.9,16.9-16.9,16.9,7.6,16.9,16.9-7.6,16.9-16.9,16.9ZM840.9,237.3c-5,0-9,4-9,9s4,9,9,9,9-4,9-9-4-9-9-9Z"/>
    <path class="st1" d="M546.9,263.8c-12.4,0-22.6-10.1-22.6-22.6s10.1-22.6,22.6-22.6,22.6,10.1,22.6,22.6-10.1,22.6-22.6,22.6ZM546.9,226.6c-8.1,0-14.6,6.6-14.6,14.6s6.6,14.6,14.6,14.6,14.6-6.6,14.6-14.6-6.6-14.6-14.6-14.6Z"/>
    <path class="st1" d="M878.2,263.2c-9.3,0-16.9-7.6-16.9-16.9s7.6-16.9,16.9-16.9,16.9,7.6,16.9,16.9-7.6,16.9-16.9,16.9ZM878.2,237.3c-5,0-9,4-9,9s4,9,9,9,9-4,9-9-4-9-9-9Z"/>
  </g>
  <g>
    <path class="st0" d="M316.2,146.3c1.9,2.2,2.7,5.2,2.2,8-4.7,27.8-28.6,48-56.8,48s-57.6-25.9-57.6-57.6,22-53.5,50.2-57.1c0,0,2.8-.3,4.2-.4s2.1,0,3.2,0h2.6c1.4,0,2.7,0,3.9.3,3.1.3,5.8.8,8.6,1.4,4.6,1.1,6.2,1.9,9.1,3.2,6.1,2.8,11.5,6.9,16.5,12,3.9,3.9,3.9,10.2,0,14-3.9,3.9-10.2,3.9-14,0-7.1-7.1-16.6-11.1-26.7-11.1-20.8,0-37.8,17-37.8,37.8s16.9,37.8,37.8,37.8,26.9-7.9,33.3-19.9h-30.9c-5.5,0-9.9-4.4-9.9-9.9s4.4-9.9,9.9-9.9h44.6c2.9,0,5.7,1.3,7.6,3.5h0Z"/>
    <path class="st0" d="M719.2,158.9c0,13.2,10.7,23.9,23.9,23.9s11.8-2.3,16.3-6.4c4-3.7,10.3-3.5,14,.5s3.5,10.3-.5,14c-8.1,7.6-18.7,11.7-29.8,11.7-24.1,0-43.7-19.6-43.7-43.7s19.6-43.7,43.7-43.7,3.6,0,4.9,0c2.3,0,3.5.4,5,.7s.9.2,1.5.4c3.4.8,8.3,2.8,11.9,5.1s6.1,4.7,8.9,7.7c3.7,4,3.5,10.3-.5,14s-10.3,3.5-14-.5c-4.6-4.9-10.8-7.7-17.5-7.7-13.2,0-23.9,10.7-23.9,23.9h-.2Z"/>
    <path class="st0" d="M687,125.1v67.6c0,5.5-4.4,9.9-9.9,9.9s-9.9-4.4-9.9-9.9v-67.6c0-5.5,4.5-9.9,9.9-9.9s9.9,4.4,9.9,9.9Z"/>
    <path class="st0" d="M565.4,158.7c0,24.1-19.6,43.7-43.7,43.7,0,0-4.7-.1-6.6-.4s-3.9-.8-5.9-1.4c-5.2-1.6-8.2-7.1-6.7-12.4,1.6-5.2,7.1-8.2,12.4-6.7,2.2.7,4.5,1,6.9,1,13.1,0,23.8-10.7,23.8-23.8s-10.7-23.8-23.8-23.8-23.8,10.7-23.8,23.8v59.8c0,5.5-4.4,9.9-9.9,9.9s-9.9-4.4-9.9-9.9v-91.6c0-5.5,4.4-9.9,9.9-9.9s7.4,2.4,9,5.8c7-4.9,15.6-7.7,24.7-7.7,24.1,0,43.7,19.6,43.7,43.7h-.1Z"/>
    <path class="st0" d="M650.9,152.7v39.7c0,5.5-4.4,9.9-9.9,9.9s-9.9-4.5-9.9-9.9v-39.7c0-9.4-7.6-17-17-17s-17,7.6-17,17v39.8c0,5.5-4.4,9.9-9.9,9.9s-9.9-4.5-9.9-9.9v-93.1c0-5.5,4.4-9.9,9.9-9.9s9.9,4.4,9.9,9.9v20.6c5.1-2.7,10.9-4.2,17-4.2,20.3,0,36.9,16.5,36.9,36.9h0Z"/>
    <path class="st0" d="M906.4,99.8v93.2c0,5.5-4.4,9.9-9.9,9.9s-9.9-4.4-9.9-9.9v-93.2c0-5.5,4.4-9.9,9.9-9.9s9.9,4.5,9.9,9.9Z"/>
    <path class="st0" d="M871.7,124.6v68.5c0,5.2-4.2,9.4-9.4,9.4s-9.4-4.2-9.4-9.4v-34.6c0-13.6-11-24.6-24.6-24.6s-24.6,11-24.6,24.6,11,24.6,24.6,24.6,2.7,0,3.6-.2,1.9-.4,3.1-.7c5-1.4,10.2,1.5,11.5,6.5,1.4,5-1.5,10.2-6.5,11.6-3.8,1.1-7.7,1.6-11.7,1.6-23.9,0-43.3-19.4-43.3-43.3s19.4-43.3,43.3-43.3,3.2,0,4.5,0c4.2.2,6.1.6,8.2,1.3s1.2.4,1.9.7c3.7,1.4,6.6,3.3,10.1,5.7.8-4.4,4.6-7.8,9.2-7.8s9.4,4.2,9.4,9.4h.1Z"/>
    <path class="st0" d="M377.6,124.7c0,5.5-4.4,9.9-9.9,9.9-8.3,0-15,6.7-15,15v42.6c0,5.5-4.4,9.9-9.9,9.9s-9.9-4.4-9.9-9.9v-42.6c0-16.6,11.7-30.6,27.3-34.1s2.6-.5,3.9-.6,2.4-.2,3.6-.2,1.1,0,1.8.2c1.5.2,3.1.7,4.1,1.4,2.7,1.8,4,4.9,4,8.3h0Z"/>
    <path class="st0" d="M667.3,99.3c0-2.7,1.1-5.1,2.9-6.9,1.8-1.7,4.2-2.8,6.9-2.8s5.1,1.1,6.9,2.8c1.7,1.8,2.8,4.2,2.8,6.9s-1.1,5.1-2.8,6.9c-1.8,1.8-4.2,2.9-6.9,2.9-5.4,0-9.8-4.4-9.8-9.8h0Z"/>
    <path class="st0" d="M464.7,124.5v68.4c0,5.2-4.2,9.3-9.3,9.3s-9.4-4.2-9.4-9.3v-34.5c0-13.5-11-24.5-24.5-24.5s-24.5,11-24.5,24.5,11,24.5,24.5,24.5,3.2-.1,4.5-.4,1.4-.3,2.2-.5c5-1.4,10.1,1.5,11.5,6.5s-1.5,10.1-6.5,11.5c-3.8,1.1-7.7,1.6-11.7,1.6-23.8,0-43.2-19.4-43.2-43.2s19.4-43.2,43.2-43.2,4.3,0,5.8,0c2.8,0,4.4.3,5.6.5s2,.5,3.1.9c3.1,1,6.2,3.4,10.2,6.2.8-4.4,4.6-7.7,9.2-7.7s9.3,4.2,9.3,9.3h0Z"/>
    <g>
      <rect class="st0" x="171.4" y="114.8" width="20.1" height="87.8" rx="10" ry="10"/>
      <path class="st0" d="M185.4,87.5h0c7.1,4.1,7.1,14.4,0,18.5h0c-7.1,4.1-16-1-16-9.2h0c0-8.2,8.9-13.3,16-9.2h0Z"/>
    </g>
  </g>
</svg>