<?xml version="1.0" encoding="UTF-8"?>
<svg id="Group_11570" xmlns="http://www.w3.org/2000/svg" version="1.1" viewBox="0 0 118.6 92.3">
  <!-- Generator: Adobe Illustrator 29.1.0, SVG Export Plug-In . SVG Version: 2.1.0 Build 142)  -->
  <defs>
    <style>
      .st0 {
        fill: #f3f4fc;
      }

      .st1 {
        fill: #fff;
        stroke: #e5e5e5;
        stroke-miterlimit: 10;
        stroke-width: 1.5px;
      }

      .st2 {
        fill: #526eff;
      }
    </style>
  </defs>
  <path class="st1" d="M63.3.8L28.5,3.6c-4.9.4-9.3,3.4-11.4,7.9L2.1,43c-2.1,4.5-1.7,9.8,1.1,13.8l19.8,28.7c2.8,4.1,7.6,6.3,12.5,5.9l34.8-2.8c4.9-.4,9.3-3.4,11.4-7.9l15-31.5c2.1-4.5,1.7-9.8-1.1-13.8l-19.8-28.7c-2.8-4.1-7.6-6.3-12.5-5.9Z"/>
  <g>
    <path id="Path_11571" class="st0" d="M41.3,68.2c-4.5,0-9-1-13.1-2.9v-11.6c1-.4,3.3-1.4,9.1-4.3.3,0,.9,0,1.7,0,4.4,0,12.4-.4,16.2-3.2l24.9-2,5.7,2.3,1,.5v11.2c-2.8-.6-5.7-1-8.6-1-3.9,0-7.7.6-11.4,1.7-.5.2-1,.3-1.4.5l-.5.2h0c-1.1.4-2.1.9-3.1,1.5h0s0,0,0,0c-5.9,4.5-13,6.9-20.4,6.9"/>
    <path id="Path_11572" class="st2" d="M79.9,45l5.5,2.2.5.3v9.8c-2.6-.5-5.2-.8-7.8-.8-3.9,0-7.8.6-11.6,1.8-.5.2-1,.3-1.5.5l-1,.4h0c-.9.4-1.8.9-2.7,1.3h0c0,0,0,.1,0,.1-5.7,4.4-12.7,6.7-19.9,6.8-4.2,0-8.4-.9-12.3-2.6v-10.6c1.3-.5,3.7-1.7,8.5-4,.3,0,.8,0,1.5,0,4.5,0,12.4-.4,16.5-3.2l24.5-2ZM80.1,43.4l-25.3,2.1c-3.7,2.8-12.2,3.2-15.9,3.2s-1.8,0-1.8,0c0,0-9.2,4.5-9.7,4.5h0v12.6c4.3,2.1,9.1,3.2,13.9,3.2,7.5,0,14.9-2.5,20.9-7.1,1.1-.6,2.3-1.2,3.5-1.6h0c.5-.2.9-.3,1.4-.5,3.6-1.1,7.3-1.7,11.1-1.7,3.2,0,6.3.4,9.4,1.2v-12.6l-1.4-.8-5.9-2.4Z"/>
    <path id="Path_11573" class="st0" d="M37,49c-1.4,0-2.8-.3-4-.9-1.4-.7-2.6-1.4-3.7-1.9-3.9-2-5.9-3-6.7-4.2-.8-1.1-.8-2.5-.6-5.6,0-1.6.1-3.7,0-6.4h0c1.2,0,3.1-.8,5.1-1.6,1.9-.8,4-1.6,5-1.6.1,0,.2,0,.3,0h0c0,0,0,0,0,0,.9.5,1.4,1.3,1.5,2.3,0,.5.3,1.4,1.1,1.4s1-.4,1.7-1c1.3-.4,2.6-.7,3.9-.8,1.5-.2,3-.5,4.5-.9v10.9c0,.2,0,.4-.1.5-.2.4-.4,1.1-.9,2.3-.6,1.8-1.9,5.4-2.5,5.9h0s0,0,0,0c-1.4,1.1-3.1,1.6-4.8,1.6"/>
    <path id="Path_11574" class="st2" d="M32.2,27.4h.1c.7.4.9,1,1,1.8,0,.5.4,2.1,1.9,2.1.8,0,1.6-.5,2.1-1.1,1.2-.3,2.4-.6,3.6-.7,1.5-.3,2.7-.5,3.6-.7v9.9c0,0,0,.2,0,.2-.2.4-.4,1.1-.9,2.4-.6,1.9-1.4,3.8-2.2,5.6h0c-1.2,1-2.8,1.5-4.3,1.4-1.3,0-2.5-.3-3.6-.8-1.4-.7-2.6-1.4-3.7-1.9-3.7-1.9-5.7-2.9-6.4-4-.6-.8-.6-2-.5-5.1,0-1.5.1-3.4.1-5.7,1.6-.4,3.2-.9,4.7-1.6,1.5-.7,3.1-1.3,4.7-1.6M32.2,25.8c-2.4,0-8,3.3-10.2,3.3s-.8-.2-.9-.6c.5,16-3.4,12.4,11.4,20.2,1.4.7,2.8,1,4.4,1,1.9,0,3.8-.6,5.3-1.8,1-.5,3.1-7.6,3.6-8.6.1-.3.2-.6.2-.8v-12.6c0,.1,0,.3,0,.4-.4,1.1-8.9,1.7-9.6,2.5-.6.6-.9.8-1.1.8-.7,0,0-2.5-2.3-3.7-.2-.2-.5-.2-.8-.2M21.1,28.3c0,0,0,.1,0,.2,0,0,0-.1,0-.2"/>
    <path id="Path_11575" class="st0" d="M36.9,36.4c-1.4,0-2.7-.3-3.9-.9l-9.4-5c-.8-.3-1.3-1-1.6-1.7-.2-.8.3-1.6,1.3-2.3.8-.5,1.6-.8,2.5-.9l12.1-2.3c.6-.1,1.2-.2,1.9-.2,2.3,0,4.4.8,5.2,2,.3.4.4,1,.2,1.5l-2.8,7.3c-.2.6-.7,1-1.2,1.4-1.3.8-2.8,1.2-4.3,1.1"/>
    <path id="Path_11576" class="st2" d="M39.7,23.8h0c2.2,0,4,.8,4.6,1.7.2.2.2.5.1.8l-2.8,7.3c-.2.4-.5.8-.9,1-1.2.7-2.5,1-3.9,1-1.2,0-2.4-.3-3.5-.8l-9.4-5c-.6-.2-1-.7-1.2-1.2-.2-.7.7-1.3.9-1.4.7-.4,1.4-.7,2.2-.8l12.1-2.3c.6-.1,1.1-.2,1.7-.2M39.7,22.2c-.7,0-1.3,0-2,.2l-12.1,2.3c-1,.2-1.9.5-2.8,1.1-1.2.6-1.8,1.8-1.6,3.1.3,1,1.1,1.8,2,2.2l9.4,5c1.3.7,2.8,1,4.3,1,1.7,0,3.3-.4,4.8-1.2.7-.4,1.2-1,1.5-1.7l2.8-7.3c.9-2.4-2.3-4.6-6.2-4.6"/>
    <path id="Path_11577" class="st0" d="M46.5,41.9c4.3-2.6,9.2-3.9,14.2-4,5.1-.2,10.2.9,14.8,3.2l7.1,3.8c-8.1-.9-16.6.7-22.4,4.5l-3.4,2.2c-4.3,2.6-9.2,3.9-14.2,4-4.6.2-9.2-.7-13.4-2.5l17.2-11.2Z"/>
    <path id="Path_11578" class="st2" d="M61.4,37.1c2.6,0,5.2.3,7.7.8,2.3.5,4.6,1.3,6.7,2.4l10.6,5.7-4-.4c-1.4-.2-2.9-.2-4.3-.2-6.7,0-13.1,1.7-17.6,4.6l-3.4,2.2c-4.4,2.6-9.5,4.1-14.6,4.1h0c-.3,0-.7,0-1,0-2.3,0-4.5-.2-6.7-.7-2.1-.4-4.1-1-6-1.9l-1.3-.6,18.4-11.9c4.4-2.6,9.5-4,14.6-4.1h0c.3,0,.5,0,.8,0ZM79,43.9l-3.9-2.1c-4.2-2.1-8.9-3.2-13.7-3.1-.2,0-.5,0-.7,0-4.9,0-9.6,1.4-13.8,3.9l-16,10.4c3.4,1.3,7.1,1.9,10.7,1.8.3,0,.6,0,1,0,4.9,0,9.6-1.4,13.8-3.9l3.4-2.2c2.6-1.6,5.5-2.9,8.5-3.6,3.2-.8,6.6-1.2,9.9-1.2.3,0,.6,0,.9,0Z"/>
    <path id="Path_11579" class="st0" d="M102,79.5c-5.1,0-10.2-1.2-14.8-3.4l-17.6-9.4v-11.6l.9-.4,18.7,2.6c1.8.9,3.7,2,5.4,3,3.7,2.1,7.6,4.4,11.5,5.5.5.1,1.1.2,1.6.2,2.2,0,5-1,8.1-2.8h0c.6.2,1.2.4,1.7.7v11.7c-4.8,2.7-10.2,4.1-15.7,4h0Z"/>
    <path id="Path_11580" class="st2" d="M70.6,55.3l18.4,2.5c1.8.9,3.6,1.9,5.3,2.9,3.8,2.2,7.7,4.4,11.6,5.5.6.2,1.2.3,1.9.2,2.8,0,6-1.4,8.3-2.7.2,0,.5.2.9.4v10.8c-4.6,2.5-9.7,3.8-14.9,3.7-5,0-9.9-1.1-14.4-3.3l-17.1-9.2v-10.7h.2ZM70.4,53.7l-1.6.7v12.6l18,9.7c4.7,2.3,9.9,3.5,15.2,3.5,5.8,0,11.5-1.5,16.5-4.4v-12.6c-.8-.5-1.7-.8-2.6-1,0,0-.1,0-.2,0-.1,0-4.4,2.8-7.9,2.8-.5,0-1,0-1.4-.2-5.6-1.6-11.2-5.6-16.9-8.5l-19.1-2.6Z"/>
    <path id="Path_11581" class="st0" d="M101.9,67c-5,0-9.9-1-14.3-3.3l-17.3-9.3h.2c4.5-2.7,9.7-3.9,14.9-3.8,4.8,0,9.6,1,13.9,3.2l17.7,9.5h-.2c-4.6,2.6-9.7,3.8-14.8,3.7"/>
    <path id="Path_11582" class="st2" d="M85.4,51.4c4.7,0,9.4,1,13.6,3.1l16.4,8.8c-4.2,2-8.8,3-13.4,2.9-4.8,0-9.6-1-13.9-3.2l-16.1-8.6c4.2-2.1,8.8-3.1,13.5-3M85.4,49.8c-5.3-.1-10.6,1.2-15.3,3.8l-1.4.8,18.5,10c4.5,2.3,9.6,3.4,14.7,3.4,5.3.1,10.6-1.2,15.2-3.7l1.5-.8-18.9-10.2c-4.4-2.2-9.3-3.3-14.3-3.3"/>
  </g>
</svg>