<?xml version="1.0" encoding="UTF-8"?>
<svg id="Layer_2" xmlns="http://www.w3.org/2000/svg" version="1.1" xmlns:xlink="http://www.w3.org/1999/xlink" viewBox="0 0 111 111">
  <!-- Generator: Adobe Illustrator 29.1.0, SVG Export Plug-In . SVG Version: 2.1.0 Build 142)  -->
  <defs>
    <style>
      .st0 {
        fill: #fff;
      }

      .st1 {
        isolation: isolate;
        opacity: .4;
      }

      .st1, .st2 {
        fill: #2563eb;
      }

      .st3 {
        fill: url(#linear-gradient);
      }
    </style>
    <linearGradient id="linear-gradient" x1="66.2" y1="51" x2="38.1" y2="72" gradientTransform="translate(0 112) scale(1 -1)" gradientUnits="userSpaceOnUse">
      <stop offset="0" stop-color="#f7a233"/>
      <stop offset="1" stop-color="#f8b051"/>
    </linearGradient>
  </defs>
  <g id="Layer_1-2">
    <rect class="st2" x="11.3" y="11.3" width="88.4" height="88.4" rx="19.1" ry="19.1" transform="translate(-23 55.5) rotate(-45)"/>
    <rect class="st1" x="11.3" y="11.3" width="88.4" height="88.4" rx="19.1" ry="19.1"/>
    <rect class="st2" x="11.3" y="11.3" width="88.4" height="88.4" rx="19.1" ry="19.1" transform="translate(-23 55.5) rotate(-45)"/>
    <g>
      <path class="st0" d="M64,73.9v14.4c-7.1,0-12.9-5.8-12.9-12.9v-14h.3c6.9,0,12.6,5.7,12.6,12.6h0Z"/>
      <path class="st0" d="M56.3,23.2l6.3,3.7c2.5,1.4,2.5,5,0,6.4l-6.3,3.7c-2.5,1.4-5.5-.4-5.5-3.2v-7.3c0-2.8,3.1-4.6,5.5-3.2h0Z"/>
      <path class="st3" d="M64,55.3v8.8c-1.8-5.3-6.7-9.1-12.6-9.1h-2.9c-3.4,0-6.5-1.3-8.9-3.7s-3.6-5.3-3.7-8.5h15.5c3.4,0,6.5,1.3,8.9,3.7,2.4,2.4,3.7,5.5,3.7,8.9h0Z"/>
    </g>
  </g>
</svg>